<?xml version="1.0" encoding="UTF-8"?>
<svg id="Calque_1" xmlns="http://www.w3.org/2000/svg" version="1.1" viewBox="0 0 491.52 491.52">
  <!-- Generator: Adobe Illustrator 30.2.1, SVG Export Plug-In . SVG Version: 2.1.1 Build 1)  -->
  <defs>
    <style>
      .st0 {
        fill: #fff;
      }
    </style>
  </defs>
  <path class="st0" d="M371.29,436.81v-10.81s21.52,0,21.52,0c.57.33.38,1.21.38,1.74v7.54c0,.38.22,1.52-.31,1.52h-21.59Z"/>
  <polygon class="st0" points="273.11 54.71 273.12 65.47 283.93 65.53 283.93 76.56 273.12 76.55 273.11 87.36 262.09 87.37 262.11 54.74 273.11 54.71"/>
  <path class="st0" d="M229.43,65.52v21.1c0,.26-.46.77-.78.77l-10.22-.05-.02-21.81h11.02Z"/>
  <path class="st0" d="M294.95,152.88v10.1c0,.42-.5.93-.92.93h-9.19c-.4,0-.91-.52-.91-.93v-10.1s11.02,0,11.02,0Z"/>
  <polygon class="st0" points="185.75 87.36 185.75 109.2 174.72 109.21 174.73 98.39 163.91 98.39 163.91 87.36 185.75 87.36"/>
  <path class="st0" d="M262.09,87.37v43.68s-10.82,0-10.82,0v-20.9c0-.46-.5-.93-.91-.93h-9.19c-.42,0-.92.5-.92.93l.02,9.63c-.19.17-.75.49-.98.48l-9.83-.07-.03-21.74,10.8-.11.04-9.8c0-.58.27-1.17.95-1.17h20.89Z"/>
  <polygon class="st0" points="327.61 98.39 316.79 98.39 316.81 87.39 327.62 87.44 327.61 98.39"/>
  <polygon class="st0" points="163.91 98.39 163.91 109.2 152.88 109.21 152.94 98.39 163.91 98.39"/>
  <rect class="st0" x="196.56" y="98.38" width="11.03" height="10.83"/>
  <rect class="st0" x="305.77" y="98.39" width="11.02" height="10.81"/>
  <path class="st0" d="M152.88,109.21v10.1c0,.42.51.93.93.93h10.1s0,10.81,0,10.81h-21.33c-.75,0-.53-1.09-.53-1.49l.02-20.35h10.82Z"/>
  <rect class="st0" x="163.91" y="109.2" width="10.82" height="11.03"/>
  <path class="st0" d="M196.56,109.21v11.03s11.03,0,11.03,0v-11.03s10.82.07,10.82.07v21.77s-31.69,0-31.69,0c-.36,0-1.03.24-1.03.51v.96s.07,8.64.07,8.64c0,.41-.52.91-.97.91h-20.89s0-11.03,0-11.03h10.76s.06-10.81.06-10.81h10.1c.42,0,.93-.52.93-.92v-10.11s10.81,0,10.81,0Z"/>
  <rect class="st0" x="414.98" y="414.97" width="11.02" height="11.03"/>
  <rect class="st0" x="141.88" y="414.98" width="11.03" height="11.02"/>
  <path class="st0" d="M371.29,426h-10.82s0-21.81,0-21.81l10.31-.02c.73,0,.52,1.05.52,1.48l-.02,20.35Z"/>
  <path class="st0" d="M338.63,404.16v-11.03s9.87.01,9.87.01c.28,0,.91.29,1.01.54s-.02.79-.02,1.17v7.83c0,.4.14,1.46-.54,1.46h-10.32Z"/>
  <polygon class="st0" points="273.11 360.48 273.09 371.28 262.08 371.29 262.09 360.48 273.11 360.48"/>
  <path class="st0" d="M349.45,349.45l.03,31.36c0,.48.22,1.48-.54,1.48l-10.28.06-.02,10.78h-10.1c-.42,0-.92.51-.92.93v10.11s-10.81-.06-10.81-.06v-32.19c0-.44.91-.62,1.21-.62h20.59s.02-10.79.02-10.79l-10.22-.04c-.35,0-.79-.66-.79-.92l.03-10.08h21.81Z"/>
  <polygon class="st0" points="305.77 349.45 305.78 360.4 294.97 360.45 294.95 349.45 305.77 349.45"/>
  <polygon class="st0" points="283.93 349.45 283.92 360.46 273.11 360.48 273.14 349.5 283.93 349.45"/>
  <path class="st0" d="M131.04,360.48v-11.03s10.11,0,10.11,0c.41,0,.92.51.92.91v9.19c0,.4-.5.92-.92.92h-10.11Z"/>
  <rect class="st0" x="131.04" y="327.61" width="11.03" height="11.03"/>
  <path class="st0" d="M229.43,371.29v11.03s-43.66,0-43.66,0l-.04-21.8-9.85-.04c-.36.08-1.13-.33-1.13-.69l-.03-10.27-21.81-.07v-10.78s21.82-.04,21.82-.04v-21.82s10.08-.01,10.08-.01c.24,0,.93.29.93.65l.02,21.15,10.81.1.02,32.61h32.85Z"/>
  <path class="st0" d="M174.72,316.8h-20.88c-.47,0-.95-.5-.95-.94v-10.09s21.09,0,21.09,0c.27,0,.76.45.76.67l-.02,10.35Z"/>
  <rect class="st0" x="152.88" y="283.93" width="11.03" height="11.03"/>
  <polygon class="st0" points="404.16 273.12 404.1 283.93 393.13 283.93 393.13 273.12 404.16 273.12"/>
  <path class="st0" d="M273.11,316.8v10.77s10.82.05,10.82.05v-10.81s11.02.03,11.02.03v32.62s-11.03,0-11.03,0v-10.78s-21.82-.05-21.82-.05l-.02-10.99h-10.8s0,10.98,0,10.98l10.82.03-.02,21.83-10.8.02-.02,10.79h10.81s.02,21.81.02,21.81l10.98.06.03,10.06c0,.61-.61.95-1.21.94l-20.61-.02-.03-10.11c0-.42-.48-.9-.95-.9h-20.89s0-10.82,0-10.82l10.81-.02v-10.92s-10.81-.09-10.81-.09l-.02-10.8-21.78-.02-.03-21.79,10.8-.08.03-10.98h-10.8s-.02-10.81-.02-10.81h10.8s.03,10.8.03,10.8h10.08c.43,0,.93.48.93.94v20.9s10.82,0,10.82,0v-43.63s-21.8-.07-21.8-.07l-.07-10.77-10.78-.06-.02-11,32.67-.02-.02-21.82h10.1c.44,0,.93.45.93.98v53.72s21.84.01,21.84.01Z"/>
  <rect class="st0" x="218.4" y="262.09" width="11.03" height="11.03"/>
  <path class="st0" d="M207.59,262.09v21.84s-21.84,0-21.84,0v10.24c0,.34-.66.79-.95.79h-9.15c-.42,0-.92-.52-.92-.93v-9.19c0-.41.49-.91.92-.91h10.1s0-10.82,0-10.82l10.81-.02v-11s11.03,0,11.03,0Z"/>
  <path class="st0" d="M185.75,262.09v11.03s-10.1,0-10.1,0c-.42,0-.92-.51-.92-.93v-10.09s11.02,0,11.02,0Z"/>
  <polygon class="st0" points="404.15 262.09 393.13 262.09 393.13 251.28 404.14 251.29 404.15 262.09"/>
  <polygon class="st0" points="196.57 251.28 196.56 262.09 185.75 262.09 185.8 251.28 196.57 251.28"/>
  <path class="st0" d="M305.77,109.2v10.1c0,.41.52.93.91.93h9.19c.42,0,.92-.51.92-.94v-10.1s10.81,0,10.81,0v10.1c0,.41.52.93.92.93h10.1s0,20.87,0,20.87c0,.48-.49.96-.93.96h-9.19c-.38,0-.92-.52-.92-.92l.05-8.26c0-.58.29-1.82-.54-1.82h-10.3s-.04,10.29-.04,10.29c0,.27-.65.72-.92.72l-10.08-.02.02-9.55c0-.4.15-1.45-.53-1.45l-10.32.05v10.96s-10.97,0-10.97,0l-.06,10.81h-10.82s-.01-10.8-.01-10.8l-10.09-.03c-.4,0-.91-.49-.91-.92v-10.1s11.01-.02,11.01-.02l.02-21.75,10.8-.05.02,9.84c0,.55.32,1.17.91,1.17h9.18c.42,0,.92-.51.92-.92l.02-10.08,10.79-.03Z"/>
  <rect class="st0" x="262.09" y="229.42" width="11.03" height="10.84"/>
  <path class="st0" d="M305.77,98.4h-31.89c-.29,0-.78-.46-.78-.69v-10.34s10.83-.06,10.83-.06v-10.74s10.98,0,10.98,0l.1,10.78,10.77.08v10.97Z"/>
  <polygon class="st0" points="196.56 229.44 196.56 240.25 185.75 240.21 185.76 229.45 196.56 229.44"/>
  <path class="st0" d="M0,491.52V0h491.52v491.52H0ZM43.67,43.68v76.55h76.56V43.68H43.67ZM163.91,87.36l-11.01-.07-.02-21.74h-10.31c-.86,0-.53,1.24-.53,1.69v20.07s-10.98.1-10.98.1l-.03,10.16c0,.19.46.73.63.8l10.37.04.03,10.78-11.01.08-.02,21.75-21.8.03-.05,10.08c.07.46.44.92,1.01.92h53.71s-.04,9.34-.04,9.34c0,.45-.03,1.14.34,1.46l10.49.07.06,10.3c0,.34.71.68.94.68l10.01.03v9.5c0,.33-.02.73.07.94.11.25.82.36,1.14.36l9.63.03v11s-21.8,0-21.8,0v10.81s21.81,0,21.81,0v9.86c0,.38.29,1.15.73,1.15l21.09.02.06,10.79,10.07.03c.42,0,.92.48.92.91v10.1s-32.87,0-32.87,0l-.02-11.01h-32.59s-.05-20.9-.05-20.9c0-.5-.47-.92-.92-.96h-10.07s-.06-10.81-.06-10.81h-32.61s-.01-11.02-.01-11.02l10.8-.03.03-10.8h11.01s-.04,9.33-.04,9.33c0,.41-.18,1.48.53,1.49l20.4.02c.39,0,.95-.37.95-.74l-.04-10.08h-21.82s.01-9.87.01-9.87c0-.35-.33-1.16-.69-1.16l-10.32.02-.03,11h-10.82s0-10.1,0-10.1c0-.41-.51-.93-.92-.93l-10.08.04-.04,10.07c0,.4.54.93.93.93h10.1s0,10.8,0,10.8l-10.98.04-.04,10.04c0,.31.44.94.73.94l10.31.03-.05,10.78-10.07.03c-.43,0-.92.47-.92.91v10.1s10.12-.02,10.12-.02c.49,0,.93.45.93.96l-.07,9.85h-10.95s-.03-10.79-.03-10.79l-10.31-.03c-.87,0-.52-1.24-.52-1.72l.02-30.16c0-.66-.6-.99-1.16-.98l-9.84.05-.02,10.34c-.08.3-.58.66-.97.66h-20.85s-.05,21.78-.05,21.78l-10.31.08c-.76-.39-.54-1.04-.54-1.74l.07-8.15c0-.32-.37-1.16-.71-1.15l-10.33.03v21.78s10.31.06,10.31.06c.71,0,.67,1.04.67,1.54l-.02,7.68c0,.49-.23,1.75.55,1.75l10.27.05.04,10.76-10.3.08c-.92,0-.53,1.4-.54,1.96v7.07c-.01.51-.26,1.63.36,1.92l10.48.07v10.78s-20.88.01-20.88.01c-.47,0-.97.48-.97.93l.1,10.08h32.71c.09,3.2.1,6.07.02,9.07-.01.55-.13,1.2.17,1.72l10.66.08.11,10.97h32.01c.3,0,.78-.52.78-.77v-10.22s10.83-.08,10.83-.08l-.02-10.75-10.81-.03v-10.29c0-.29-.65-.73-.94-.73h-9.28c-.28.01-.8.53-.8.75v9.31c0,.48.49.97.92.97h10.1s0,10.82,0,10.82l-21.58-.02c-.5-.08-.27-1.3-.27-1.73v-51.01c0-.66-.11-1.1.14-1.75l21.66.02.05,10.8h-10.11c-.42,0-.92.5-.92.91v9.19c0,.41.5.92.94.92h9.14c.3,0,.94-.44.94-.72v-10.29s10.79-.04,10.79-.04l.09-10.79h10.06c.4,0,.91-.52.91-.93v-9.18c0-.27-.44-.91-.71-.91l-10.26-.02-.04-10.79,10.08-.03c.39,0,.94-.5.94-.9l-.06-8.4c0-.51-.19-1.32.37-1.69h10.5s0,53.91,0,53.91c0,.38.63.77.94.77h20.88s.01,10.82.01,10.82l-10.31.03c-.84,0-.54,1.22-.54,1.74l.02,8.56c0,.68-1.14.69-1.62.69l-9.36.03-.03,10.79h-11s0,11.03,0,11.03h11.01s0,10.81,0,10.81l-10.3.03c-.86,0-.54,1.18-.54,1.74l.03,8.53c0,.21-.51.71-.73.71l-10.23.05-.06,10.78h-21.84v11.03h21.84v10.81s-43.68.01-43.68.01v-32.63s10.1-.05,10.1-.05c.43-.03.92-.49.92-.91v-9.19c0-.42-.48-.91-.96-.91h-20.75c-.34-.59-.18-1.18-.18-1.75v-9.05s-10.96,0-10.96,0v32.53s-10.48.18-10.48.18c-.75.01-.37,1.42-.37,1.98l.02,8.92-11.02.09.02,10.75,10.96-.02.05-10.79h21.71s.1,9.03.1,9.03c-.17.42-.19,1.75.24,1.76l10.59.06.05,10.99h43.64s.01,21.76.01,21.76l10.11.1c.38,0,.92-.56.92-.93l-.05-8.41-.09-.99c-.03-.27.59-.69.89-.69l10.03-.04.06-10.78,10.96.02.03,20.61c0,.41-.31,1.17-.71,1.17l-10.3.05-.05,10.77-9.86.03c-.28,0-.9.28-1,.53s.03.81.03,1.16l.05,8.4c0,.42-.53.91-.95.91l-10.08.04.03,21.8h10.79s0,21.85,0,21.85h11.03s0-21.84,0-21.84h10.9c.14,3.11.13,6.01.07,9.12,0,.48-.12,1.4.27,1.68l9.85.03c.25,0,.73.44.73.75l.03,10.26h32.77s.09-9.87.09-9.87c0-.36-.35-1.14-.76-1.14h-21.1s-.01-10.83-.01-10.83h-10.08c-.45,0-.93-.48-.93-.95v-20.85s-10.8-.06-10.8-.06l-.05-9.84c0-.24.07-.73.19-.88s.57-.29.78-.29l9.85.06.03,10.98h11.01s0-10.38,0-10.38c0-.3.61-.64,1.01-.64h42.64s.06,10.98.06,10.98l10.77.07.04,10.79-21.82-.02-.04-10.26c0-.24-.54-.57-.71-.56l-10.06.04-.1,10.8-10.93-.02-.06-10.78-10.79-.03v21.85s54.47,0,54.47,0l.05-11.01,10.07-.02c.43.04.93.47.93.95v20.91s-31.9,0-31.9,0c-.5,0-.98.48-.98.91l.02,10.09,32.82.02.04-11.03,10.78.07.06,10.43c0,.18.51.55.74.55h31.54c.25,0,.55-.53.55-.75v-21.11s-10.98.04-10.98.04l-.07,10.79h-10.8s.01-21.79.01-21.79l10.8-.08.03-10.29c0-.23.65-.5.97-.5l9.99-.02.11-10.97,10.06-.04c.23,0,.7.39.7.7v21.07s-10.8.14-10.8.14l-.05,10.95,21.83.04.04,10.14c0,.22-.43.66-.62.66h-9.43c-.7,0-1.01.58-1,1.15l.14,9.86h32.16c.2,0,.59-.4.59-.55l-.02-9.79c0-.25-.62-.68-.89-.68h-9.57c-.23,0-.53-.55-.53-.76v-31.9s11.01,0,11.01,0v21.8s21.84.04,21.84.04v10.81s10.81,0,10.81,0v10.09c.02.63.55.95,1.25.95h75.26s.08-9.87.08-9.87c0-.59-.37-1.16-.99-1.16h-20.86s-.03-10.82-.03-10.82h11.02v-11.03h-11.02v-10.82s-10.1.01-10.1.01c-.43,0-.91-.5-.91-.98v-30.93c0-.5.45-.96.95-.96h9.3c.23,0,.75.52.75.74l.04,10.25,10.28.07c.99,0,.55,1.18.55,1.68l-.03,9.09-10.79.05-.04,11,10.49-.07c.73-.12.38-1.46.38-1.98l-.03-8.96,11.02-.08v-54.41s-21.82-.04-21.82-.04l-.02,10.81h10.32c.75.34.55.99.55,1.72v7.57c0,.48.25,1.7-.56,1.7h-10.29s-.03-10.99-.03-10.99h-10.3c-.27,0-.73.65-.73.94l.06,8.34c0,.5.29,1.71-.55,1.71h-10.29s-.04-10.21-.04-10.21c0-.28-.52-.77-.75-.77l-10.19-.05-.06-8.79c0-.52.44-1.93-.36-1.93l-10.45-.03-.07,10.77-10.5.04c-.2-.17-.5-.74-.5-.98l.05-8.37c0-.41.15-1.48-.54-1.48h-10.3s-.04,10.75-.04,10.75l-11.01.06.05-9.32c0-.65.19-1.47-.78-1.48l-10.08-.05v-32.83s10.3.03,10.3.03c.84,0,.55,1.23.55,1.68l-.05,8.39c0,.41.54.93.92.93h10.07s.1,10.8.1,10.8h10.65c.28-.48.15-1,.15-1.5v-20.31s10.96-.03,10.96-.03l.02-21.83h10.82s0,10.08,0,10.08c0,.3.43.93.74.93l10.26.04-.03,10.79h-10.06c-.41.03-.92.48-.92.95l.04,20.89h21.67c.33-.54.36-1.21.14-1.73l.04-9.05,10.95-.04.06,10.83h21.81s0-32.63,0-32.63h-10.99s0,20.09,0,20.09c0,.49.25,1.39-.37,1.7l-10.48.03v-31.91c0-.35-.42-.94-.73-.94l-10.22-.05-.02-9.05c0-.55.16-1.19-.17-1.73h-10.7s0-11.03,0-11.03h10.7c.33-.55.2-1.18.18-1.74-.08-3.01-.07-5.86.02-9.07h31.57c.39,0,1.1-.22,1.22-.51v-21.31s-10.96,0-10.96,0v9.06c0,.5.18,1.24-.2,1.73h-21.2c-.21-.17-.52-.7-.52-.97l.06-9.81,10.05-.04c.42,0,.93-.48.93-.91v-10.11s10.7,0,10.7,0c.31-.57.2-1.15.18-1.73-.08-2.47-.08-4.87,0-7.34.02-.58.12-1.17-.17-1.73h-10.72s.02-11.01.02-11.01l21.75-.02.05-10.79-9.85-.03c-.29,0-.82-.13-.95-.33-.11-.16-.16-.59-.16-.84l-.03-9.83,11-.05-.04-10.8-10.92.03-.06,10.8-10.75-.02-.1-10.79-10.01-.02c-.33,0-.95-.43-.95-.72v-9.37c-.01-.44.48-.92.9-.93l10.09-.03-.05-10.8h-21.76s-.03-10.99-.03-10.99l-10.1-.04c-.4,0-.9.54-.9.93v9.19c0,.4.51.92.92.92h10.1s0,20.9,0,20.9c0,.45-.51.95-.93.95l-10.08-.02.02-9.3c0-.46.32-1.69-.54-1.69l-10.31-.03-.03-21.83-21.79-.02-.03-21.8-10.1-.06c-.41.06-.93.52-.93.94l.05,8.39c0,.35.13.91.02,1.16s-.73.55-1.01.55h-9.87s0-10.96,0-10.96l-11.02-.06v-10.81s20.87,0,20.87,0c.33,0,.92-.3,1.04-.54s-.05-.8-.05-1.2l-.02-31.1,11.02-.04v-21.78s-10.32-.05-10.32-.05c-.31.17-.69.61-.69.97v20.89s-32.64-.01-32.64-.01l-.04-10.81h20.9c.63,0,.98-.59.98-1.16l-.06-9.86h-21.78s-.04,11.01-.04,11.01h-11s.03-9.55.03-9.55c0-.39.16-1.46-.53-1.45l-10.31.04-.02,10.38c0,.33.74.6.99.6l9.84-.02-.03,10.82h-21.83s0-10.81,0-10.81h-10.82s-.03-11.02-.03-11.02l-21.81.03-.03,21.79h-21.82s-.02-21.82-.02-21.82h-21.8s-.02,10.53-.02,10.53c.04.35,1.11.48,1.51.48h9.3s0,10.81,0,10.81l-10.81.07-.03,21.77h-21.82s-.02-10.79-.02-10.79l-10.08-.03c-.41,0-.92-.48-.92-.94l.02-20.87h10.98s.03,9.32.03,9.32c-.33.64.02,1.4.69,1.5l10.13-.06v-21.79s-53.96,0-53.96,0c-.91,0-.58,1.25-.58,1.71v7.57s-.08,1.03-.08,1.03c-.02.27.58.69.88.69l21.08.02v32.64ZM447.85,43.68h-76.56v76.55h76.56V43.68ZM54.64,163.99l.03,8.96c0,.45-.35,1.76.29,1.76h21.51s.02-9.3.02-9.3c0-.44-.12-1.06.2-1.49h20.73c.49-.01.97-.52.97-.93v-9.19c0-.43-.49-.9-.92-.91l-10.09-.04-.03-21.81-21.82.03-.02,10.08c.05.43.5.89.93.9l10.06.05-.02,10.77-20.8.02c-.35,0-1.03-.22-1.08-.5-.04-.24.05-.75.05-1.05v-9.23s-10.96-.01-10.96-.01l-.02,20.84c0,.49.49.97.93.97l10.03.09ZM142.07,251.27h-11.03v10.83h11.03v-10.83ZM437.02,262.09h-11.03v11.02h11.03v-11.02ZM54.71,305.77h-11.03v11.03h11.03v-11.03ZM120.23,305.77h-11.03v11.03h11.03v-11.03ZM120.23,371.3H43.67v76.55h76.56v-76.55Z"/>
  <path class="st0" d="M404.16,218.41v21.81s-10.1.04-10.1.04c-.42,0-.91.48-.91.91v10.1s-21.85,0-21.85,0l.03-10.34c0-.68,1.11-.69,1.61-.69l9.37-.03v-10.79s10.32-.02,10.32-.02c.85,0,.56-1.21.56-1.73l-.06-8.34c0-.42.53-.94.93-.94h10.1Z"/>
  <path class="st0" d="M251.27,131.04v10.1c0,.41-.5.92-.93.92h-10.1s0-10.1,0-10.1c0-.43.49-.93.92-.93h10.1Z"/>
  <polygon class="st0" points="283.93 196.57 283.92 207.56 273.11 207.53 273.11 196.56 283.93 196.57"/>
  <path class="st0" d="M262.09,229.43h-10.83s0,10.84,0,10.84h10.83s0,11.01,0,11.01h-21.77s-.08,10.81-.08,10.81h-10.81s0-10.82,0-10.82h-11.03s0,10.82,0,10.82h-10.82s-.02-10.8-.02-10.8l-11-.02v-11.03s32.83,0,32.83,0l.03-10.81,10.82-.04v-32.83s10.32.02,10.32.02c.55,0,.7.92.7,1.4v20.39s10.81.07,10.81.07v10.98Z"/>
  <path class="st0" d="M240.25,142.08v21.84s-10.8,0-10.8,0l-.04,10.79-10.08.03c-.43,0-.92.48-.92.91v9.19c0,.41.5.92.94.92h20.84s.06,10.81.06,10.81h-43.68s0-10.81,0-10.81h10.1c.43,0,.93-.5.93-.95v-20.88s10.06-.02,10.06-.02c.24,0,.77-.45.77-.75l-.02-9.33c0-.47.49-.93.92-.93l10.08-.03.04-10.79h10.8Z"/>
  <path class="st0" d="M273.11,196.56h-10.99s-.04-21.84-.04-21.84h10.1c.42,0,.93.47.93.92v20.91Z"/>
  <polygon class="st0" points="294.95 152.88 294.95 142.07 305.77 142.07 305.78 152.82 294.95 152.88"/>
  <rect class="st0" x="360.46" y="142.07" width="11.02" height="10.82"/>
  <path class="st0" d="M360.46,152.88v11.03h11.02v-11.02h10.83s.02,10.98.02,10.98l10.81.06v31.41c0,.32.21,1.2.49,1.23l10.51-.03.03-21.79h10.47c.68.35.35,1.31.35,1.91v29.96c-.01.49.48.97.9.97h10.1s0,10.81,0,10.81h-21.84s-.07-10.81-.07-10.81h-21.76s0,21.84,0,21.84h-21.81s-.06,10.8-.06,10.8h-10.97s-.03-21.81-.03-21.81l21.56-.02c.36,0,.52-1.22.3-1.5l.03-7.45c0-.5.23-1.84-.3-1.84h-21.53s-.08,10.79-.08,10.79l-10.79.04.02,32.83h32.63s.01,10.83.01,10.83h-20.9c-.47,0-.95.49-.95.91v9.18c0,.4.49.94.94.94l20.38-.03c.87,0,.56-1.25.56-1.71l-.05-9.3h21.84s0,11.02,0,11.02h-10.76s-.06,10.81-.06,10.81h-10.1c-.43,0-.92.49-.92.95v20.9s-10.79-.02-10.79-.02l-.07-10.79-21.8.03v10.78s-10.1,0-10.1,0c-.63,0-.93.55-.93,1.21v42.47s-21.85,0-21.85,0l.02-20.89c0-.49.47-.94.91-.94l10.09-.06v-21.03c.01-.24-.53-.76-.75-.76h-31.14c-.52,0-.97.48-.97.92v10.1s-10.82,0-10.82,0v-21.84s-10.1.01-10.1.01c-.41,0-.91-.53-.91-.93v-9.19c0-.41.5-.91.91-.91h9.19c.4,0,.92.5.92.91v10.12s53.95-.01,53.95-.01c.95,0,.57-1.27.57-1.73v-18.6c0-.45.18-1.47-.5-1.48l-10.32-.07-.03-10.22c0-.24-.51-.74-.74-.74l-10.23-.05v-9.3c0-.43.15-1.48-.53-1.47l-10.31.04-.04,10.74-10.08.03c-.42,0-.92.48-.91.92v10.1s10.96,0,10.96,0l.04,10.8h-10.98s-.03-10.81-.03-10.81h-20.89c-.48,0-.94-.47-.94-.95v-20.88s21.84-.05,21.84-.05v-31.85c0-.51.46-.95.91-.95l10.09-.04.02-20.85c0-.47-.5-.96-.93-.96h-10.1s.01-20.89.01-20.89c0-.5.44-.95.94-.95l20.39-.02c.82,0,.52-1.23.52-1.7v-9.08s10.99-.01,10.99-.01l.03,21.81h21.81s.08,10.83.08,10.83h21.75s.03-10.83.03-10.83h10.71c.16.62.14,1.15.14,1.7l-.04,8.41c0,.34.59.76.91.74l10.12-.06v-21.8s-21.81,0-21.81,0l-.03,11.02h-21.84s.03-11,.03-11l10.31-.03c.68-.31.51-.86.51-1.5l-.03-19.38c0-.46.49-.95.92-.95h10.09ZM327.63,238.63v-18.5c.31-.44.09-1.69-.49-1.69l-10.34-.03v-20.87c0-.48-.48-.97-.91-.97h-9.19c-.42,0-.92.49-.92.95l.02,20.87,11,.05v21.8s10.69.03,10.69.03c.21-.54.26-1.04.15-1.63Z"/>
  <path class="st0" d="M273.11,152.88v10.1c0,.42-.51.92-.92.92l-10.07.03-.03,10.79h-21.76s-.08-10.81-.08-10.81h10.1c.27,0,.91-.45.91-.72l.04-10.3h21.81Z"/>
  <polygon points="229.43 229.43 229.4 240.25 196.56 240.25 196.56 229.44 229.43 229.43"/>
  <path d="M273.11,87.36v10.34c0,.23.48.68.77.68h31.89s0,10.82,0,10.82l-10.79.03-.02,10.08c0,.41-.5.92-.92.92h-9.18c-.59,0-.91-.61-.91-1.17l-.02-9.84-10.8.05-.02,21.75-11.02.02v-43.68s11.03,0,11.03,0Z"/>
  <path d="M196.56,229.44h-10.8s-.02,10.77-.02,10.77l10.82.04v11.03s-10.76,0-10.76,0l-.06,10.81h-11.02s-.01-10.81-.01-10.81h-20.88c-.31,0-.94-.4-.94-.78v-53.93s-10.5.01-10.5.01c-.56.37-.37,1.19-.37,1.69l.06,8.4c0,.4-.55.9-.94.9l-10.08.03.04,10.79,10.26.02c.27,0,.71.64.71.91v9.18c0,.41-.51.92-.91.92h-10.06s-.09,10.79-.09,10.79l-10.79.04v10.29c0,.28-.64.73-.94.73h-9.14c-.44,0-.94-.51-.94-.92v-9.19c0-.41.5-.91.92-.91h10.11s-.05-10.8-.05-10.8l-21.66-.02c-.25.65-.14,1.08-.14,1.75v51.01c0,.43-.23,1.65.27,1.73l21.58.02v-10.83s-10.09,0-10.09,0c-.43,0-.93-.48-.93-.97v-9.31c0-.22.53-.74.8-.74h9.28c.29-.01.93.42.93.71v10.29s10.81.03,10.81.03l.02,10.75-10.83.08v10.22c0,.25-.49.77-.78.77h-32.01s-.11-10.97-.11-10.97l-10.66-.08c-.3-.52-.18-1.17-.17-1.72.08-3,.07-5.87-.02-9.06h-32.71s-.1-10.1-.1-10.1c0-.46.49-.93.97-.93h20.87s0-10.79,0-10.79l-10.48-.07c-.62-.29-.38-1.41-.37-1.92v-7.07c.01-.56-.37-1.96.55-1.96l10.3-.08-.04-10.76-10.27-.05c-.78,0-.55-1.26-.55-1.75l.02-7.68c0-.5.04-1.54-.67-1.54l-10.31-.06v-21.78s10.33-.03,10.33-.03c.34,0,.71.83.71,1.15l-.07,8.15c0,.7-.23,1.35.54,1.74l10.31-.08.05-21.78h20.85c.39,0,.89-.36.97-.66l.02-10.34,9.84-.05c.56,0,1.16.33,1.16.98l-.02,30.16c0,.48-.35,1.72.52,1.72l10.31.03.03,10.79h10.95s.07-9.85.07-9.85c0-.51-.44-.96-.93-.96l-10.11.02v-10.1c0-.44.49-.91.91-.91l10.07-.03.05-10.78-10.31-.03c-.29,0-.73-.63-.73-.94l.04-10.04,10.98-.04v-10.81s-10.09.01-10.09.01c-.39,0-.93-.53-.93-.93l.04-10.07,10.08-.04c.41,0,.92.52.92.93v10.1s10.81,0,10.81,0l.03-11,10.32-.02c.36,0,.69.8.69,1.16v9.86s21.8.01,21.8.01l.04,10.08c0,.37-.56.74-.95.74l-20.4-.02c-.71,0-.53-1.07-.53-1.49l.04-9.32h-11.01s-.03,10.79-.03,10.79l-10.8.03v11.01s32.62,0,32.62,0l.06,10.82h10.07c.45.03.92.45.92.94l.05,20.89h32.59s.02,11.02.02,11.02ZM76.35,240.25v21.85h11.03v-21.85h-11.03Z"/>
  <rect x="360.46" y="152.89" width="11.02" height="11.03"/>
  <path d="M240.25,163.92l.08,10.81h21.76s.04,21.84.04,21.84h10.99s0,10.96,0,10.96l10.81.03v-10.99s10.11,0,10.11,0c.44,0,.93.49.93.96l-.02,20.85-10.09.04c-.45,0-.92.44-.92.95v31.85s-21.85.05-21.85.05v-11.02s11.03,0,11.03,0v-10.84s-11.03,0-11.03,0v-10.98s-10.81-.07-10.81-.07v-20.39c0-.48-.15-1.4-.7-1.4l-10.33-.02-.06-10.81h-20.84c-.45,0-.94-.51-.94-.92v-9.19c0-.43.49-.9.91-.91l10.08-.03.04-10.79h10.8Z"/>
  <polygon points="294.95 142.07 294.95 152.88 283.93 152.89 283.99 142.08 294.95 142.07"/>
  <rect x="174.75" y="185.76" width="21.81" height="10.81"/>
  <path d="M240.24,196.57v32.83s-10.81.04-10.81.04v-10.1c0-.44-.5-.91-.92-.91l-10.07-.03-.06-10.79-21.09-.02c-.44,0-.73-.77-.73-1.15v-9.86s43.68,0,43.68,0Z"/>
  <path d="M426,207.59h-10.1c-.43,0-.92-.48-.92-.97v-29.96c.01-.59.35-1.56-.34-1.91h-10.47s-.03,21.79-.03,21.79l-10.51.03c-.28-.03-.49-.91-.49-1.23v-31.41s-10.8-.06-10.8-.06l-.02-10.98,10.31.03c.86,0,.54,1.22.54,1.69l-.02,9.3,10.08.02c.42,0,.93-.5.93-.95v-20.91s-10.11,0-10.11,0c-.41,0-.91-.52-.91-.92v-9.19c0-.39.5-.93.9-.93l10.1.04.03,10.99h21.76s.05,10.8.05,10.8l-10.09.03c-.42,0-.92.48-.92.93v9.37c.01.28.63.72.96.72l10.01.02.1,10.79,10.75.02.06-10.8,10.92-.03.04,10.8-11,.05.03,9.83c0,.25.06.68.16.84.13.2.66.32.95.33l9.85.03-.05,10.79-21.75.02-.02,11.01Z"/>
  <path d="M262.09,131.05v10.1c0,.42.52.92.92.92l10.09.03v10.79s-21.8.01-21.8.01l-.04,10.3c0,.27-.64.72-.91.72h-10.1s0-21.84,0-21.84h10.1c.42,0,.93-.51.93-.93v-10.1s10.81,0,10.81,0Z"/>
  <polygon points="371.29 426 371.29 436.81 360.48 436.81 360.48 426 371.29 426"/>
  <path d="M382.32,229.43v10.79s-9.39.03-9.39.03c-.5,0-1.61.01-1.61.69l-.03,10.34h-32.63s-.02-32.84-.02-32.84l10.79-.04.08-10.79h21.53c.52,0,.3,1.34.3,1.84l-.03,7.45c.22.28.07,1.5-.3,1.5l-21.56.02.03,21.8h10.97s.06-10.78.06-10.78h21.81Z"/>
  <path d="M404.16,218.41h-10.1c-.4,0-.93.52-.93.93l.06,8.34c0,.51.3,1.72-.56,1.73l-10.3.02v-21.83s21.77-.01,21.77-.01l.07,10.81Z"/>
  <path d="M426,218.41v-10.81s10.72,0,10.72,0c.29.56.19,1.15.17,1.73-.08,2.47-.08,4.87,0,7.34.02.58.12,1.17-.18,1.73h-10.71Z"/>
  <rect x="141.88" y="426" width="11.03" height="21.85"/>
  <polygon points="174.73 120.23 174.67 131.04 163.91 131.04 163.91 120.23 174.73 120.23"/>
  <path d="M382.31,152.89h-10.83s0-10.82,0-10.82h-11.02v10.82h-10.09c-.43,0-.92.49-.92.95l.03,19.38c0,.64.17,1.2-.51,1.5l-10.31.03-.03,11h21.84s.03-11.02.03-11.02h21.81s0,21.8,0,21.8l-10.12.06c-.32.02-.91-.4-.91-.74l.04-8.41c0-.55.02-1.08-.14-1.68h-10.71s-.03,10.8-.03,10.8h-21.75s-.08-10.81-.08-10.81h-21.81s-.03-21.82-.03-21.82h-10.98s0,9.09,0,9.09c0,.47.3,1.7-.52,1.7l-20.39.02c-.5,0-.94.45-.94.95v20.88s-10.83,0-10.83,0v-20.91c0-.45-.5-.92-.92-.92h-10.1s.03-10.79.03-10.79l10.07-.03c.41,0,.93-.49.93-.92v-10.1s10.81,0,10.81,0v10.1c0,.41.52.93.92.93h9.19c.41,0,.92-.52.92-.93v-10.1s10.82-.06,10.82-.06v-10.75s-10.82,0-10.82,0v-10.96s10.32-.05,10.32-.05c.69,0,.53,1.05.53,1.45l-.02,9.55,10.08.02c.27,0,.92-.45.92-.72l.04-10.29h10.3c.83,0,.54,1.24.54,1.82l-.05,8.26c0,.4.54.92.92.92h9.19c.43,0,.93-.49.93-.96v-20.88s9.87,0,9.87,0c.28,0,.9-.3,1.01-.55s-.02-.81-.02-1.16l-.05-8.39c0-.42.51-.88.93-.94l10.1.06.03,21.8,21.79.02.03,21.83ZM338.64,152.89h-11.03s0,11.03,0,11.03h11.03s0-11.03,0-11.03Z"/>
  <path d="M338.64,120.23h-10.1c-.41,0-.92-.52-.92-.93v-10.1s11.02.06,11.02.06v10.96Z"/>
  <rect x="251.26" y="229.43" width="10.83" height="10.84"/>
  <path d="M316.79,109.2v10.1c0,.42-.5.93-.92.93h-9.19c-.39,0-.91-.52-.91-.92v-10.1s11.02,0,11.02,0Z"/>
  <rect x="426" y="414.97" width="11.02" height="11.03"/>
  <path d="M185.75,87.36h-21.84v-32.64s-21.08-.02-21.08-.02c-.3,0-.9-.42-.88-.69l.08-1.03v-7.57c0-.46-.34-1.71.58-1.71h53.96s0,21.8,0,21.8l-10.13.06c-.67-.1-1.02-.86-.69-1.5l-.03-9.33h-10.98s-.02,20.88-.02,20.88c0,.46.5.94.92.94l10.08.03.02,10.79Z"/>
  <path d="M229.43,65.52h-11.02s0-10.81,0-10.81h-9.3c-.4,0-1.47-.14-1.51-.49l.02-10.53h21.8s.02,21.83.02,21.83Z"/>
  <polygon points="207.59 262.09 196.56 262.09 196.57 251.28 207.57 251.29 207.59 262.09"/>
  <rect x="218.4" y="251.27" width="11.03" height="10.82"/>
  <path d="M262.09,251.28v20.88c.01.48.47.96.95.96h20.89s.03,10.8.03,10.8h10.98s-.04-10.8-.04-10.8h-10.96s0-10.11,0-10.11c0-.43.49-.91.91-.92l10.08-.03.04-10.74,10.31-.04c.68,0,.53,1.04.53,1.47v9.3s10.23.05,10.23.05c.23,0,.74.51.74.74l.03,10.22,10.32.07c.68,0,.5,1.03.5,1.48v18.6c0,.46.37,1.73-.57,1.73h-53.95s0-10.11,0-10.11c0-.41-.52-.91-.92-.91h-9.19c-.41,0-.91.5-.91.91v9.19c0,.4.51.93.92.93h10.1s0,21.83,0,21.83h-21.84s0-53.73,0-53.73c0-.53-.49-.97-.93-.97h-10.1s.08-10.81.08-10.81h21.77Z"/>
  <path d="M393.13,251.28v10.81s-21.85,0-21.85,0l.05,9.3c0,.45.32,1.71-.56,1.71l-20.38.03c-.46,0-.94-.53-.94-.94v-9.18c0-.42.47-.92.94-.92h20.9s-.01-10.81-.01-10.81h21.84Z"/>
  <path d="M273.11,54.71l-11.01.03-.02,32.63h-20.89c-.67,0-.94.59-.95,1.17l-.04,9.8-10.8.11.03,21.74,9.83.07c.24,0,.79-.32.98-.48l-.02-9.63c0-.43.5-.93.92-.93h9.19c.41,0,.92.47.92.94v20.9s-10.1,0-10.1,0c-.43,0-.92.5-.92.93v10.1s-10.8,0-10.8,0l-.04,10.79-10.08.03c-.43,0-.92.46-.92.93l.02,9.33c0,.29-.53.74-.77.75l-10.06.02v20.88c0,.46-.49.95-.93.95h-10.1s0-11,0-11l-9.63-.03c-.32,0-1.03-.11-1.14-.36-.09-.21-.07-.61-.07-.94v-9.5s-10.01-.03-10.01-.03c-.23,0-.94-.34-.94-.68l-.06-10.3-10.49-.07c-.37-.32-.34-1.01-.34-1.46l.04-9.33h20.89c.45,0,.97-.51.97-.92l-.06-8.64v-.96c-.02-.27.66-.5,1.02-.51h31.68s0-21.77,0-21.77l-10.82-.07v-10.82s-11.03,0-11.03,0v10.83s-10.81,0-10.81,0v-21.84s21.82,0,21.82,0l.03-21.77,10.81-.07.02,21.81,10.22.05c.32,0,.78-.51.78-.77v-21.1s21.82,0,21.82,0l.03-21.79,21.81-.03.03,11.02Z"/>
  <path d="M174.72,262.09v10.09c0,.42.5.93.93.93h10.1s0,10.81,0,10.81h-10.1c-.43,0-.92.5-.92.91v9.19c0,.41.5.93.92.93h9.15c.28,0,.94-.45.94-.79v-10.24s21.84,0,21.84,0l.02,11,10.78.06.07,10.77,21.8.07v43.63s-10.83,0-10.83,0v-20.9c0-.46-.49-.94-.93-.94h-10.08s-.03-10.8-.03-10.8h-10.8s.02,10.8.02,10.8h10.8s-.03,10.98-.03,10.98l-10.8.08.03,21.79,21.78.02.02,10.8h-32.85s-.02-32.6-.02-32.6l-10.81-.1-.02-21.15c0-.36-.69-.65-.93-.65h-10.08s.02-10.33.02-10.33c0-.22-.5-.67-.76-.67h-21.1s0-10.82,0-10.82h11.03s0-11.03,0-11.03h-11.03s.03-10.79.03-10.79l9.36-.03c.49,0,1.62-.01,1.62-.69l-.02-8.56c0-.52-.31-1.74.54-1.74l10.31-.03Z"/>
  <path d="M327.61,98.39v-10.95s-10.8-.05-10.8-.05l-.02,11h-11.02s0-10.97,0-10.97l-10.77-.08-.1-10.78h-10.98s0-11.04,0-11.04h21.83s.03-10.82.03-10.82l-9.84.02c-.25,0-.99-.27-.99-.6l.02-10.38,10.31-.04c.69,0,.53,1.06.53,1.45l-.03,9.56h11s.04-11.02.04-11.02h21.78s.06,9.86.06,9.86c0,.56-.35,1.16-.98,1.16h-20.9s.04,10.81.04,10.81h32.63s.01-20.88.01-20.88c0-.37.38-.81.69-.97l10.32.05v21.78s-11.02.04-11.02.04l.02,31.1c0,.4.17.96.05,1.2s-.71.54-1.04.54h-20.87Z"/>
  <polygon points="196.56 262.09 196.56 273.09 185.75 273.11 185.75 262.09 196.56 262.09"/>
  <path d="M338.63,393.13v11.03s-11.02,0-11.02,0v-10.11c0-.42.5-.92.93-.92h10.1Z"/>
  <polygon points="218.4 262.09 218.4 273.12 229.44 273.12 229.44 262.09 240.24 262.09 240.26 283.91 207.59 283.93 207.59 262.09 218.4 262.09"/>
  <polygon points="229.43 382.32 229.43 371.29 240.26 371.38 240.24 382.3 229.43 382.32"/>
  <polygon points="283.93 65.53 273.12 65.47 273.11 54.71 283.93 54.71 283.93 65.53"/>
  <rect x="393.13" y="262.09" width="11.03" height="11.03"/>
  <polygon points="262.09 360.48 262.08 371.29 251.27 371.29 251.29 360.5 262.09 360.48"/>
  <polygon points="393.13 273.12 393.13 283.93 382.31 283.93 382.37 273.12 393.13 273.12"/>
  <rect x="196.56" y="109.2" width="11.03" height="11.03"/>
  <path d="M393.13,283.93h10.97s.05-10.81.05-10.81h10.7c.33.55.17,1.18.17,1.73l.02,9.05,10.22.05c.31,0,.73.6.73.94v31.91s10.47-.03,10.47-.03c.62-.31.37-1.21.37-1.7v-20.08s10.99,0,10.99,0v32.62s-21.81,0-21.81,0l-.06-10.83-10.95.04-.04,9.05c.22.52.19,1.19-.14,1.74h-21.67s-.04-20.9-.04-20.9c0-.47.5-.92.92-.95h10.06s.03-10.79.03-10.79l-10.26-.04c-.31,0-.73-.63-.74-.93v-10.08Z"/>
  <rect x="141.88" y="283.93" width="11" height="11.03"/>
  <path d="M185.75,109.2v10.11c0,.41-.5.92-.92.92h-10.1s0-11.03,0-11.03h11.02Z"/>
  <path d="M382.31,283.93l-.02,21.83-10.97.03v20.31c0,.5.14,1.02-.15,1.52h-10.65s-.1-10.81-.1-10.81h-10.07c-.37,0-.92-.53-.92-.94l.05-8.39c0-.45.3-1.67-.55-1.68l-10.31-.03v-10.78s21.81-.03,21.81-.03l.07,10.79,10.79.02v-20.9c0-.46.48-.95.91-.95h10.1Z"/>
  <path d="M131.04,349.45v11.03s-43.64,0-43.64,0l-.05-10.99-10.59-.06c-.43,0-.41-1.34-.24-1.76l-.1-9.02h-21.71s-.05,10.78-.05,10.78l-10.96.02-.02-10.75,11.02-.09-.02-8.92c0-.56-.38-1.97.37-1.98l10.48-.18v-32.53s10.96,0,10.96,0v9.05c.01.57-.15,1.16.19,1.74h20.75c.48,0,.96.5.96.92v9.19c0,.42-.5.89-.92.91l-10.09.05v32.63s43.67-.01,43.67-.01Z"/>
  <path d="M163.91,87.36v11.03s-10.96,0-10.96,0l-.06,10.81h-10.82s-.03-10.79-.03-10.79l-10.37-.04c-.17-.06-.63-.61-.63-.8l.03-10.16,10.97-.1v-20.07c0-.46-.33-1.7.53-1.7h10.31s.02,21.74.02,21.74l11.01.07Z"/>
  <polygon points="283.93 76.56 283.94 87.3 273.11 87.36 273.12 76.55 283.93 76.56"/>
  <path d="M152.88,305.77v10.09c0,.44.49.94.96.94h20.88s0,21.82,0,21.82l-21.82.04v10.78s21.81.07,21.81.07l.03,10.27c0,.37.78.77,1.13.69l9.85.04.04,21.8h43.66s0,10.82,0,10.82h20.89c.46,0,.94.48.95.9l.03,10.11,20.61.02c.61,0,1.22-.34,1.21-.94l-.03-10.06-10.98-.06-.02-21.81,11.01-.02.02-10.8,10.81-.02v-11.01s11.03,0,11.03,0l.02,11,10.81-.05-.02-10.95h21.86s0-42.46,0-42.46c0-.66.3-1.21.93-1.21h10.09s0,32.83,0,32.83l10.08.05c.97,0,.78.82.78,1.48l-.05,9.32h-21.81s-.03,10.09-.03,10.09c0,.27.44.92.79.92l10.22.04-.02,10.79h-20.59c-.3,0-1.21.19-1.21.63v32.19s10.81.06,10.81.06v31.9c.01.21.32.76.55.76h9.57c.27,0,.89.43.89.68l.02,9.79c0,.15-.38.56-.59.56h-32.16s-.14-9.87-.14-9.87c0-.57.3-1.16,1-1.16h9.43c.19,0,.62-.43.62-.65l-.04-10.14-21.83-.04.05-10.95,10.8-.14v-21.07c0-.31-.47-.7-.7-.7l-10.06.04-.11,10.97-9.99.02c-.32,0-.97.28-.97.5l-.03,10.29-10.8.08v21.78s10.79,0,10.79,0l.07-10.79,10.97-.04v21.11c0,.22-.3.74-.55.74h-31.54c-.23,0-.74-.37-.74-.54l-.06-10.43-10.78-.07-.04,11.03-32.82-.02-.02-10.09c0-.43.48-.91.98-.91h31.89s0-20.9,0-20.9c0-.48-.5-.91-.93-.95l-10.07.02-.05,11.01h-54.47s0-21.85,0-21.85l10.79.03.06,10.78,10.93.02.1-10.8,10.06-.04c.17,0,.71.32.71.56l.04,10.26,21.82.02-.04-10.79-10.77-.07-.06-10.98h-42.64c-.4,0-1.01.34-1.01.64v10.38s-11,0-11,0l-.03-10.98-9.85-.06c-.2,0-.66.13-.78.29s-.19.64-.19.88l.05,9.84,10.8.06v20.85c0,.48.48.96.92.96h10.08s.01,10.81.01,10.81h21.1c.41.01.77.8.76,1.15l-.09,9.87h-32.77s-.03-10.26-.03-10.26c0-.32-.48-.75-.73-.75l-9.85-.03c-.39-.27-.28-1.2-.27-1.68.06-3.11.07-6.01-.07-9.11h-10.9s0-11.03,0-11.03h-11.03s0,11.02,0,11.02h-10.79s-.03-21.81-.03-21.81l10.08-.04c.42,0,.95-.49.95-.91l-.05-8.4c0-.35-.13-.91-.03-1.16s.72-.53,1-.53l9.86-.03.05-10.77,10.3-.05c.4,0,.71-.76.71-1.17l-.03-20.61-10.96-.02-.06,10.78-10.03.04c-.3,0-.91.43-.89.69l.09.99.05,8.41c0,.37-.53.94-.92.93l-10.11-.1v-21.76s10.1,0,10.1,0c.42,0,.92-.52.92-.92v-9.19c0-.4-.51-.91-.92-.91h-10.11s0-10.81,0-10.81h11.03v-11.03h-11.03l.06-10.78,10.23-.05c.22,0,.73-.5.73-.71l-.03-8.53c0-.56-.32-1.74.54-1.74l10.3-.03ZM305.79,371.3h-10.85v11.03h10.85v-11.03ZM273.1,382.32v10.82h10.85v-10.82h-10.85Z"/>
  <path d="M163.91,109.2v11.03s-10.09,0-10.09,0c-.42,0-.92-.51-.92-.93v-10.1s11.02,0,11.02,0Z"/>
  <path d="M305.77,349.45h-10.82s0-32.62,0-32.62l-11.02-.03v-10.1c0-.44.45-.93.97-.93h31.14c.22,0,.76.53.76.77v21.03s-10.1.06-10.1.06c-.45,0-.91.45-.91.94l-.02,20.89Z"/>
  <path d="M142.07,109.2l-.02,20.35c0,.4-.22,1.5.53,1.5h21.33s0,11.03,0,11.03h-53.71c-.57,0-.95-.47-1.01-.93l.05-10.08,21.8-.03.02-21.75,11.01-.08Z"/>
  <polygon points="283.93 316.8 283.93 327.61 273.11 327.56 273.11 316.8 283.93 316.8"/>
  <rect x="109.2" y="327.61" width="21.84" height="11.03"/>
  <rect x="316.8" y="98.39" width="10.81" height="10.82" transform="translate(218.38 425.99) rotate(-90)"/>
  <polygon points="283.93 349.45 273.14 349.5 273.11 360.48 262.09 360.48 262.1 338.65 251.29 338.61 251.28 327.63 262.08 327.63 262.1 338.63 283.93 338.67 283.93 349.45"/>
  <path d="M425.99,414.97h-11.02v11.03h11.02l.03,10.81h20.86c.61.01.99.59.99,1.17l-.08,9.86h-75.26c-.7,0-1.23-.32-1.23-.95v-10.09s21.58,0,21.58,0c.53,0,.3-1.15.3-1.52v-7.54c0-.52.2-1.41-.38-1.74h-21.51s.02-20.36.02-20.36c0-.43.21-1.48-.52-1.48l-10.31.02v21.81s-21.85-.04-21.85-.04v-21.8s10.31-.01,10.31-.01c.69,0,.55-1.06.55-1.46v-7.83c0-.38.11-.92.01-1.17s-.73-.54-1.01-.54h-9.87s.02-10.79.02-10.79l10.28-.06c.76,0,.54-1,.54-1.48l-.03-31.36,11.01-.06.04-10.74h10.3c.69-.01.54,1.06.54,1.47l-.05,8.37c0,.24.3.8.5.98l10.5-.04.07-10.77,10.45.03c.8,0,.36,1.41.36,1.93l.06,8.79,10.19.05c.22,0,.74.49.75.77l.04,10.19h10.29c.84.01.55-1.2.55-1.7l-.06-8.34c0-.3.46-.94.73-.94h10.3s.03,11,.03,11h10.29c.81,0,.56-1.22.56-1.7v-7.57c0-.73.21-1.38-.54-1.73h-10.32s.02-10.8.02-10.8l21.83.04v54.41s-11.02.08-11.02.08l.03,8.96c0,.52.35,1.86-.38,1.98l-10.49.07.04-11,10.79-.05.03-9.09c0-.5.44-1.67-.55-1.68l-10.28-.07-.04-10.25c0-.22-.52-.73-.75-.73h-9.3c-.5,0-.95.46-.95.95v30.93c0,.49.49.98.92.98h10.1s0,10.8,0,10.8ZM393.33,360.47h-32.86s0,32.67,0,32.67h32.86s0-32.67,0-32.67ZM393.33,404.16h-11.02s0,10.83,0,10.83h11.02s0-10.83,0-10.83Z"/>
  <rect x="163.91" y="98.39" width="10.82" height="10.81"/>
  <path d="M426,218.41v10.11c0,.43-.5.91-.92.91l-10.05.04-.06,9.81c0,.27.3.8.52.98h21.2c.39-.49.2-1.24.2-1.74v-9.06s10.96,0,10.96,0v21.31c-.11.28-.82.5-1.21.5h-31.57c-.09,3.22-.1,6.06-.02,9.08.01.55.15,1.19-.18,1.74h-10.7s-.01-10.79-.01-10.79h-11.01s0-10.12,0-10.12c0-.43.49-.91.91-.91l10.1-.04v-21.81s21.84,0,21.84,0Z"/>
  <path d="M54.64,163.99l-10.03-.09c-.44,0-.93-.48-.93-.97l.02-20.84h10.96s0,9.25,0,9.25c0,.3-.09.82-.05,1.05.05.28.73.5,1.08.5l20.8-.02.02-10.77-10.06-.05c-.43,0-.88-.47-.93-.9l.02-10.08,21.82-.03.03,21.81,10.09.04c.42,0,.92.48.92.91v9.19c0,.41-.47.92-.97.92h-20.73c-.32.44-.19,1.06-.2,1.5l-.02,9.31h-21.51c-.64,0-.29-1.32-.29-1.77l-.03-8.96Z"/>
  <rect x="43.67" y="305.77" width="11.03" height="11.03"/>
  <rect x="109.2" y="305.77" width="11.03" height="11.03"/>
  <rect x="425.99" y="262.09" width="11.03" height="11.02"/>
  <rect x="131.04" y="251.27" width="11.03" height="10.83"/>
  <rect class="st0" x="294.94" y="371.3" width="10.85" height="11.03"/>
  <rect class="st0" x="273.1" y="382.32" width="10.85" height="10.82"/>
  <rect class="st0" x="76.35" y="240.25" width="11.03" height="21.85"/>
  <rect class="st0" x="327.61" y="152.89" width="11.03" height="11.03"/>
  <path d="M327.63,238.63c.12.59.06,1.08-.15,1.63l-10.68-.03v-21.8s-11.01-.05-11.01-.05l-.02-20.87c0-.46.5-.95.92-.95h9.19c.43,0,.92.48.92.97v20.87s10.33.03,10.33.03c.59,0,.8,1.25.49,1.69v18.5Z"/>
  <g>
    <path d="M43.67,43.68h76.56v76.55H43.67V43.68ZM109.22,54.7h-54.71s0,54.51,0,54.51h54.71s0-54.51,0-54.51Z"/>
    <g>
      <path class="st0" d="M109.22,54.7v54.51s-54.71,0-54.71,0v-54.51s54.71,0,54.71,0ZM98.39,65.52h-32.87s0,32.87,0,32.87h32.87s0-32.87,0-32.87Z"/>
      <rect x="65.52" y="65.52" width="32.87" height="32.87"/>
    </g>
  </g>
  <g>
    <path d="M447.85,43.68v76.55h-76.56V43.68h76.56ZM437.02,54.7h-54.71v54.51h54.71v-54.51Z"/>
    <path class="st0" d="M437.02,54.7v54.51h-54.71v-54.51h54.71ZM426.01,65.52h-32.87v32.86h32.87v-32.86Z"/>
    <rect x="393.14" y="65.52" width="32.87" height="32.86"/>
  </g>
  <g>
    <path d="M120.23,371.3v76.55H43.67v-76.55h76.56ZM109.22,382.31h-54.71s0,54.51,0,54.51h54.71s0-54.51,0-54.51Z"/>
    <path class="st0" d="M109.22,382.31v54.51s-54.71,0-54.71,0v-54.51s54.71,0,54.71,0ZM98.39,393.14h-32.88v32.87h32.88v-32.87Z"/>
    <rect x="65.52" y="393.14" width="32.88" height="32.87"/>
  </g>
  <g>
    <path class="st0" d="M393.33,360.47v32.67s-32.86,0-32.86,0v-32.67s32.86,0,32.86,0ZM382.33,371.29h-11.03s0,11.03,0,11.03h11.03s0-11.03,0-11.03Z"/>
    <rect class="st0" x="382.31" y="404.16" width="11.02" height="10.83"/>
    <rect x="371.3" y="371.3" width="11.03" height="11.03"/>
  </g>
</svg>